<?xml version="1.0" encoding="iso-8859-1"?>
<!-- Generator: Adobe Illustrator 16.0.0, SVG Export Plug-In . SVG Version: 6.00 Build 0)  -->
<!DOCTYPE svg PUBLIC "-//W3C//DTD SVG 1.1//EN" "http://www.w3.org/Graphics/SVG/1.1/DTD/svg11.dtd">
<svg version="1.1" id="Capa_1" xmlns="http://www.w3.org/2000/svg" xmlns:xlink="http://www.w3.org/1999/xlink" x="0px" y="0px"
	 width="31.777px" height="31.777px" viewBox="0 0 31.777 31.777" style="enable-background:new 0 0 31.777 31.777;"
	 xml:space="preserve">
<g>
	<g>
		<path d="M31.667,27.394c-0.25-0.246-6.394-6.315-12.746-12.594c2.913-4.206,9.363-13.742,9.363-13.742l0.168-0.844l-11.47,12.428
			l0.011,0.254C10.77,6.746,4.895,0.942,4.748,0.797c-0.313-0.309-0.75-0.039-1.061,0.276C3.375,1.389,0.428,4.496,0,4.928
			c0.459,0.555,0.856,0.467,1.189,0.129c0.335-0.339,2.563-2.593,2.563-2.593s0.106,0.105,0.304,0.3L1.382,5.47l0.361,0.357
			l2.674-2.706c0.092,0.091,0.195,0.193,0.303,0.3L2.046,6.127l0.362,0.358l2.673-2.706c0.1,0.099,0.204,0.201,0.313,0.31
			L2.722,6.795l0.362,0.358l2.674-2.706c0.098,0.096,0.2,0.197,0.303,0.299L3.387,7.452l0.362,0.357l2.674-2.707
			C6.506,5.185,6.59,5.269,6.677,5.354L4.003,8.06l0.362,0.358l2.674-2.707c0.1,0.099,0.2,0.198,0.303,0.3L4.668,8.718L5.03,9.075
			l2.674-2.706c0.105,0.104,0.212,0.209,0.32,0.316L5.35,9.392l0.362,0.357l2.674-2.707c0.099,0.099,0.201,0.199,0.303,0.3
			l-2.674,2.706l0.362,0.357L9.05,7.699C9.154,7.802,9.258,7.905,9.364,8.01L6.69,10.716l0.361,0.357l2.674-2.706
			c0.101,0.099,0.202,0.199,0.304,0.299l-2.674,2.706l0.363,0.358l2.673-2.706c0.083,0.083,0.17,0.167,0.255,0.251l-2.674,2.707
			l0.362,0.357l2.674-2.707c0.1,0.1,0.201,0.2,0.303,0.3l-2.674,2.706L9,12.995l2.674-2.706c0.084,0.084,0.169,0.167,0.254,0.251
			l-2.674,2.706l0.362,0.357l2.674-2.706c0.101,0.1,0.201,0.199,0.303,0.299l-2.676,2.708l0.362,0.358l2.674-2.707
			c0.104,0.103,0.208,0.207,0.313,0.31l-2.673,2.707l0.362,0.357l2.673-2.706c0.101,0.099,0.202,0.199,0.303,0.299l-2.673,2.706
			l0.275,0.271c-2.777,0.689-5.178,0.346-5.275,0.332c-1.469-0.396-3.196,0.041-4.458,1.283c-1.807,1.777-1.984,4.537-0.396,6.15
			c1.589,1.613,4.351,1.479,6.157-0.299c0.005-0.006,0.01-0.012,0.016-0.018c-0.002,0.016-0.005,0.027-0.005,0.027l8.774-8.069
			c0.049,0.048,0.096,0.096,0.146,0.143l-2.674,2.706l0.361,0.356l0.158-0.159l-5.824,6.171c-0.06,0.054-0.121,0.104-0.179,0.16
			c-1.806,1.779-1.984,4.539-0.396,6.152c1.588,1.612,4.35,1.479,6.157-0.301c1.289-1.268,1.743-3.035,1.324-4.529
			c-0.038-0.308-0.441-4.029,1.318-7.518l1.397-1.416c6.173,6.1,12.033,11.891,12.207,12.061
			C30.71,29.103,32.188,27.907,31.667,27.394z M17.949,12.719c0.275-0.271,0.72-0.268,0.99,0.008
			c0.272,0.276,0.269,0.72-0.008,0.992c-0.274,0.271-0.72,0.268-0.99-0.008C17.669,13.435,17.672,12.99,17.949,12.719z
			 M6.627,22.017c-1.284,1.264-3.202,1.405-4.276,0.314c-1.073-1.09-0.902-3.006,0.381-4.271c1.284-1.264,3.202-1.404,4.275-0.312
			C8.082,18.839,7.911,20.754,6.627,22.017z M15.212,13.789l-0.286,0.29c-0.422,0.265-0.852,0.499-1.285,0.695l1.269-1.284
			C15.011,13.589,15.112,13.689,15.212,13.789z M14.293,12.88c0.085,0.084,0.17,0.168,0.255,0.253l-2.064,2.089
			c-0.241,0.08-0.48,0.151-0.717,0.215L14.293,12.88z M13.16,29.19c-1.284,1.264-3.202,1.403-4.275,0.313
			c-1.074-1.091-0.903-3.006,0.381-4.271c1.284-1.265,3.202-1.404,4.275-0.314C14.614,26.01,14.443,27.926,13.16,29.19z"/>
		<path d="M20.8,13.005L31.744,2.958L30.863,3.16c0,0-2.924,1.984-6.243,4.246C23.331,9.302,21.954,11.324,20.8,13.005z"/>
	</g>
</g>
<g>
</g>
<g>
</g>
<g>
</g>
<g>
</g>
<g>
</g>
<g>
</g>
<g>
</g>
<g>
</g>
<g>
</g>
<g>
</g>
<g>
</g>
<g>
</g>
<g>
</g>
<g>
</g>
<g>
</g>
</svg>
